<?xml version="1.0" encoding="UTF-8" standalone="no"?>
<!-- Created with Inkscape (http://www.inkscape.org/) -->

<svg
   width="800"
   height="330"
   viewBox="0 0 211.66666 87.312671"
   version="1.1"
   id="svg5"
   xml:space="preserve"
   inkscape:version="1.2.2 (b0a8486541, 2022-12-01)"
   sodipodi:docname="gas-piston.svg"
   inkscape:export-filename="olla-habitacion.svg"
   inkscape:export-xdpi="96"
   inkscape:export-ydpi="96"
   xmlns:inkscape="http://www.inkscape.org/namespaces/inkscape"
   xmlns:sodipodi="http://sodipodi.sourceforge.net/DTD/sodipodi-0.dtd"
   xmlns="http://www.w3.org/2000/svg"
   xmlns:svg="http://www.w3.org/2000/svg"><sodipodi:namedview
     id="namedview7"
     pagecolor="#ffffff"
     bordercolor="#000000"
     borderopacity="0.25"
     inkscape:showpageshadow="2"
     inkscape:pageopacity="0.0"
     inkscape:pagecheckerboard="0"
     inkscape:deskcolor="#d1d1d1"
     inkscape:document-units="mm"
     showgrid="true"
     inkscape:zoom="1.5"
     inkscape:cx="635.33333"
     inkscape:cy="274"
     inkscape:window-width="2518"
     inkscape:window-height="1209"
     inkscape:window-x="1920"
     inkscape:window-y="152"
     inkscape:window-maximized="0"
     inkscape:current-layer="layer1"><inkscape:grid
       type="xygrid"
       id="grid9"
       originx="0"
       originy="0" /></sodipodi:namedview><defs
     id="defs2"><marker
   style="overflow:visible"
   id="Dot"
   refX="0"
   refY="0"
   orient="auto"
   inkscape:stockid="Dot"
   markerWidth="5.6666665"
   markerHeight="5.6666665"
   viewBox="0 0 5.6666667 5.6666667"
   inkscape:isstock="true"
   inkscape:collect="always"
   preserveAspectRatio="xMidYMid"><path
     transform="scale(0.5)"
     style="fill:context-stroke;fill-rule:evenodd;stroke:context-stroke;stroke-width:1pt"
     d="M 5,0 C 5,2.76 2.76,5 0,5 -2.76,5 -5,2.76 -5,0 c 0,-2.76 2.3,-5 5,-5 2.76,0 5,2.24 5,5 z"
     id="Dot1"
     sodipodi:nodetypes="sssss" /></marker><marker
   style="overflow:visible"
   id="Arrow4"
   refX="0"
   refY="0"
   orient="auto-start-reverse"
   inkscape:stockid="Arrow4"
   markerWidth="5"
   markerHeight="6"
   viewBox="0 0 5 6"
   inkscape:isstock="true"
   inkscape:collect="always"
   preserveAspectRatio="xMidYMid"><path
     style="fill:context-stroke;fill-rule:evenodd;stroke:none"
     d="m 1,0 -3,3 h -2 l 3,-3 -3,-3 h 2 z"
     id="path1741" /></marker>
	
	

	
<marker
   style="overflow:visible"
   id="Arrow4-3"
   refX="0"
   refY="0"
   orient="auto-start-reverse"
   inkscape:stockid="Arrow4"
   markerWidth="5"
   markerHeight="6"
   viewBox="0 0 5 6"
   inkscape:isstock="true"
   inkscape:collect="always"
   preserveAspectRatio="xMidYMid"><path
     style="fill:context-stroke;fill-rule:evenodd;stroke:none"
     d="m 1,0 -3,3 h -2 l 3,-3 -3,-3 h 2 z"
     id="path1741-6" /></marker></defs><g
     inkscape:label="Layer 1"
     inkscape:groupmode="layer"
     id="layer1"><path
       fill="#e6e7e8"
       stroke="#000000"
       stroke-miterlimit="10"
       d="m 101.54912,37.174078 c 0,-4.383626 -5.685912,-7.937516 -12.700022,-7.937516 -7.01386,0 -12.70003,3.55389 -12.70003,7.937516 m 3.17501,0 c 0,-2.630229 4.26456,-4.76251 9.52502,-4.76251 5.26072,0 9.52502,2.132281 9.52502,4.76251"
       id="path14158"
       style="stroke-width:0.264584" /><g
       id="g14164"
       transform="matrix(0.26458387,0,0,0.26458387,55.255408,-2.5134987)">
	<path
   fill="#939598"
   stroke="#000000"
   stroke-miterlimit="10"
   d="m 162.968,180 c 0,9.941 -16.118,18 -36,18 -19.882,0 -36,-8.059 -36,-18 v -72 c 0,9.941 16.118,18 36,18 19.882,0 36,-8.059 36,-18 z"
   id="path14160" />
	<ellipse
   fill="#939598"
   stroke="#000000"
   stroke-miterlimit="10"
   cx="126.968"
   cy="108"
   rx="36"
   ry="18"
   id="ellipse14162" />
</g><path
       opacity="0.7"
       fill="#d1d3d4"
       stroke="#000000"
       stroke-miterlimit="10"
       d="m 101.54912,57.81162 c 0,4.38363 -5.685912,7.93752 -12.700022,7.93752 -7.01386,0 -12.70003,-3.55389 -12.70003,-7.93752 V 37.174078 c 0,4.383625 5.68617,7.937516 12.70003,7.937516 7.01411,0 12.700022,-3.553891 12.700022,-7.937516 z"
       id="path14166"
       style="stroke-width:0.264584" /><path
       fill="#e6e7e8"
       stroke="#000000"
       stroke-miterlimit="10"
       d="m 76.149068,37.174078 c 0,4.383625 5.68617,7.937516 12.70003,7.937516 7.01411,0 12.700022,-3.553891 12.700022,-7.937516 m -3.175002,0 c 0,2.630228 -4.2643,4.762509 -9.52502,4.762509 -5.26046,0 -9.52502,-2.132281 -9.52502,-4.762509"
       id="path14168"
       style="stroke-width:0.264584" /><path
       fill="#e6e7e8"
       stroke="#000000"
       stroke-miterlimit="10"
       d="m 41.454008,36.342312 c 0,-4.383626 -5.68591,-7.937516 -12.70003,-7.937516 -7.01385,0 -12.70002,3.55389 -12.70002,7.937516 m 3.175,0 c 0,-2.630229 4.26457,-4.76251 9.52502,-4.76251 5.26072,0 9.52502,2.132281 9.52502,4.76251"
       id="path14170"
       style="stroke-width:0.264584" /><g
       id="g14176"
       transform="matrix(0.26458387,0,0,0.26458387,-52.464796,-3.3452647)">
	<path
   fill="#939598"
   stroke="#000000"
   stroke-miterlimit="10"
   d="m 342.968,198 c 0,9.941 -16.118,18 -36,18 -19.882,0 -36,-8.059 -36,-18 v -72 c 0,9.941 16.118,18 36,18 19.882,0 36,-8.059 36,-18 z"
   id="path14172" />
	<ellipse
   fill="#939598"
   stroke="#000000"
   stroke-miterlimit="10"
   cx="306.96799"
   cy="126"
   rx="36"
   ry="18"
   id="ellipse14174" />
</g><path
       opacity="0.7"
       fill="#d1d3d4"
       stroke="#000000"
       stroke-miterlimit="10"
       d="m 41.454008,56.97985 c 0,4.38363 -5.68591,7.93752 -12.70003,7.93752 -7.01385,0 -12.70002,-3.55389 -12.70002,-7.93752 V 36.342312 c 0,4.383625 5.68617,7.937516 12.70002,7.937516 7.01412,0 12.70003,-3.553891 12.70003,-7.937516 z"
       id="path14178"
       style="stroke-width:0.264584" /><path
       fill="#e6e7e8"
       stroke="#000000"
       stroke-miterlimit="10"
       d="m 16.053958,36.342312 c 0,4.383625 5.68617,7.937516 12.70002,7.937516 7.01412,0 12.70003,-3.553891 12.70003,-7.937516 m -3.17501,0 c 0,2.630228 -4.2643,4.762509 -9.52502,4.762509 -5.26045,0 -9.52502,-2.132281 -9.52502,-4.762509"
       id="path14180"
       style="stroke-width:0.264584" /><path
       opacity="0.4"
       fill="#662d91"
       stroke="#000000"
       stroke-miterlimit="10"
       d="m 98.374118,57.81162 c 0,2.63023 -4.26457,4.76251 -9.52502,4.76251 -5.26046,0 -9.52502,-2.13228 -9.52502,-4.76251 V 45.111594 c 0,2.630226 4.26456,4.762506 9.52502,4.762506 5.26045,0 9.52502,-2.13228 9.52502,-4.762506 z"
       id="path14182"
       style="stroke-width:0.264584" /><path
       opacity="0.4"
       fill="#662d91"
       stroke="#000000"
       stroke-miterlimit="10"
       d="m 38.278998,56.97985 c 0,2.63023 -4.26456,4.76251 -9.52502,4.76251 -5.26045,0 -9.52502,-2.13228 -9.52502,-4.76251 v -7.93751 c 0,2.63023 4.26457,4.76251 9.52502,4.76251 5.26046,0 9.52502,-2.13228 9.52502,-4.76251 z"
       id="path14184"
       style="stroke-width:0.264584" /><rect
       x="25.578974"
       y="53.804863"
       fill="none"
       width="9.5250196"
       height="9.5250196"
       id="rect14190"
       style="stroke-width:0.264584" /><text
       id="text14196"
       x="25.579065"
       y="59.257248"
       style="font-size:3.17501px;stroke-width:0.264584"><tspan
         x="25.579065"
         y="59.257248"
         font-family="Helvetica-Oblique"
         font-size="6.35001px"
         id="tspan14192"
         style="stroke-width:0.0700046">V</tspan><tspan
         x="29.814524"
         y="61.373924"
         font-family="Helvetica"
         font-size="4.76251px"
         id="tspan14194"
         style="stroke-width:0.0700046">1</tspan></text><rect
       x="85.674095"
       y="53.049118"
       fill="none"
       width="7.9375162"
       height="7.8052239"
       id="rect14198"
       style="stroke-width:0.264584" /><text
       id="text14204"
       x="85.674171"
       y="58.501511"
       style="font-size:3.17501px;stroke-width:0.264584"><tspan
         x="85.674171"
         y="58.501511"
         font-family="Helvetica-Oblique"
         font-size="6.35001px"
         id="tspan14200"
         style="stroke-width:0.0700046">V</tspan><tspan
         x="89.90963"
         y="60.618179"
         font-family="Helvetica"
         font-size="4.76251px"
         id="tspan14202"
         style="stroke-width:0.0700046">2</tspan></text><g
       id="g14246"
       transform="matrix(0.26458387,0,0,0.26458387,-52.464796,-3.3452647)">
	<g
   id="g14244">
		<line
   fill="none"
   stroke="#2b3990"
   stroke-width="2"
   stroke-miterlimit="10"
   x1="305.96799"
   y1="75"
   x2="305.96799"
   y2="114.643"
   id="line14238" />
		<g
   id="g14242">
			<polygon
   fill="#2b3990"
   points="300.784,110.71 305.968,112.913 311.153,110.71 305.968,123 "
   id="polygon14240" />
		</g>
	</g>
</g><g
       id="g14256"
       transform="matrix(0.26458387,0,0,0.26458387,55.255408,-2.5134987)">
	<g
   id="g14254">
		<line
   fill="none"
   stroke="#2b3990"
   stroke-width="2"
   stroke-miterlimit="10"
   x1="126.968"
   y1="74"
   x2="126.968"
   y2="95.642998"
   id="line14248" />
		<g
   id="g14252">
			<polygon
   fill="#2b3990"
   points="126.968,93.913 132.153,91.71 126.968,104 121.784,91.71 "
   id="polygon14250" />
		</g>
	</g>
</g><text
       id="text14274"
       x="76.487358"
       y="69.482025"
       style="font-size:3.17501px;stroke-width:0.264584"><tspan
         x="76.62336"
         y="73.450775"
         font-family="Helvetica"
         font-size="4.76251px"
         id="tspan14272"
         style="stroke-width:0.0700046">Estado final</tspan></text><text
       id="text14274-5"
       x="102.70197"
       y="128.62947"
       style="font-size:3.17501px;stroke-width:0.264584"
       transform="rotate(-30)"><tspan
         x="102.83797"
         y="132.59825"
         font-family="Helvetica"
         font-size="4.76251px"
         id="tspan14272-6"
         style="stroke-width:0.0700046">Estado final</tspan></text><text
       id="text14282"
       x="13.55385"
       y="69.359474"
       style="font-size:3.17501px;stroke-width:0.264584"><tspan
         x="14.747904"
         y="73.328224"
         font-family="Helvetica"
         font-size="4.76251px"
         id="tspan14280"
         style="stroke-width:0.0700046">Estado inicial</tspan></text><g
       id="g14266"
       transform="matrix(0.26458386,0,0,0.26458386,1.2821578,-2.3779667)">
	<g
   id="g14264">
		<line
   fill="none"
   stroke="#2b3990"
   stroke-width="2"
   stroke-miterlimit="10"
   x1="66.968002"
   y1="72"
   x2="68.468002"
   y2="72"
   id="line14258" />
		
			<line
   fill="none"
   stroke="#2b3990"
   stroke-width="2"
   stroke-miterlimit="10"
   stroke-dasharray="3, 3"
   x1="71.468002"
   y1="72"
   x2="357.96799"
   y2="72"
   id="line14260" />
		<line
   fill="none"
   stroke="#2b3990"
   stroke-width="2"
   stroke-miterlimit="10"
   x1="359.46799"
   y1="72"
   x2="360.96799"
   y2="72"
   id="line14262" />
	</g>
</g><text
       id="text14214"
       x="30.922709"
       y="14.810605"
       style="font-size:3.17501px;stroke-width:0.264584"><tspan
         x="30.922709"
         y="14.810605"
         font-family="Helvetica"
         font-size="4.76251px"
         id="tspan14208"
         style="stroke-width:0.0700046">Presión externa constante</tspan></text><path
       style="fill:#ff2a2a;stroke:#ff2a2a;stroke-width:0.513002;stroke-linejoin:round;marker-end:url(#Arrow4)"
       d="M 134.1927,68.70615 134.1472,6.7239599"
       id="path385" /><path
       style="fill:#ff2a2a;stroke:#ff2a2a;stroke-width:0.513002;stroke-linejoin:round;marker-end:url(#Arrow4-3)"
       d="m 134.1927,68.70615 61.98218,-0.0455"
       id="path385-7" /><path
       style="fill:#ff2a2a;stroke:#0d0067;stroke-width:0.513002;stroke-linejoin:round;stroke-opacity:1;marker-start:url(#Dot);marker-end:url(#Dot)"
       d="m 144.77605,39.601925 h 34.3959"
       id="path1220" /><text
       id="text14282-5"
       x="109.67639"
       y="93.550117"
       style="font-size:3.17501px;stroke-width:0.264584"
       transform="rotate(-30)"><tspan
         x="110.87045"
         y="97.518867"
         font-family="Helvetica"
         font-size="4.76251px"
         id="tspan14280-3"
         style="stroke-width:0.0700046">Estado inicial</tspan></text><path
       style="fill:none;stroke:#0d0067;stroke-width:0.513002;stroke-linejoin:round;stroke-opacity:1"
       d="m 142.13021,29.018571 c -0.58258,0.13952 -1.19116,0.197014 -1.74774,0.418558 -0.11526,0.04588 -0.93005,1.01592 -0.95059,1.042627 -1.25443,1.63067 -2.33627,4.451772 -1.12883,6.362708 0.55903,0.884752 1.51956,1.801477 2.55471,2.111998 0.3385,0.101539 0.71874,0.106937 1.0694,0.106937 0.15844,0 0.59298,0.106072 0.4753,0 -0.49423,-0.445451 -1.04463,-0.936862 -1.5447,-1.416905 -0.24946,-0.239475 -0.50412,-0.562481 -0.50501,-0.561423 -0.24565,0.294691 1.6566,2.003188 1.6338,2.085257 -0.0719,0.258866 -0.53632,0.04035 -0.80202,0.08021 -0.57634,0.08644 -1.12981,0.4054 -1.69323,0.56141 -0.0866,0.024 -0.84509,0.450451 -0.77234,0.347546 0.18198,-0.257434 0.51027,-0.370377 0.76541,-0.555565"
       id="path3016" /><path
       style="fill:none;stroke:#0d0067;stroke-width:0.513002;stroke-linejoin:round;stroke-opacity:1"
       d="m 176.52611,50.18528 c 0.82506,-0.44139 1.62616,-0.937749 2.47376,-1.339207 2.28711,-1.083268 3.80236,-2.258938 3.80236,-4.91907 0,-0.381429 -0.37563,-2.513009 -0.92089,-2.513009 -0.007,0 0.0103,0.728772 0,1.149567 -0.013,0.524508 -0.0816,1.650929 -0.50501,2.031792 -5e-5,5e-5 0.0374,-0.477918 0.0594,-0.935701 0.0285,-0.592131 0.13968,-1.174673 0.1782,-1.764441 0.0524,-0.803102 -0.0813,0.414688 0.0594,-0.534679 0.009,-0.06171 -0.0622,-0.192231 0,-0.187145 0.69167,0.05658 1.29048,0.66796 1.96056,0.828764 0.26557,0.06373 0.55968,0.05346 0.83178,0.05346 0.0693,0 0.27434,-0.01992 0.20793,0 -0.24093,0.07229 -0.16018,-0.06706 -0.21005,0.192152"
       id="path3081" /><path
       style="fill:none;stroke:#0d0067;stroke-width:0.513002;stroke-linejoin:round;stroke-opacity:1"
       d="m 124.75725,5.9913349 c 0.27069,1.946091 0.48564,3.899963 0.86149,5.8280361 0.005,0.02516 0.10826,1.256493 0.26734,1.256493 0.14258,0 0,-0.285161 0,-0.427742"
       id="path3085" /><path
       style="fill:none;stroke:#0d0067;stroke-width:0.513002;stroke-linejoin:round;stroke-opacity:1"
       d="m 121.60847,6.4725519 c 0.35647,-0.169318 0.71105,-0.342663 1.0694,-0.507948 1.6844,-0.776914 3.35461,-1.244521 5.2282,-1.015896 0.95405,0.116414 1.75927,0.93828 0.83174,1.791182 -0.64689,0.594838 -1.56491,1.038378 -2.34672,1.390174 -0.33879,0.152448 -0.74927,0.191881 -1.03973,0.401011"
       id="path3087" /><path
       style="fill:none;stroke:#0d0067;stroke-width:0.513002;stroke-linejoin:round;stroke-opacity:1"
       d="m 190.70392,72.45227 c 0.10668,0.81363 0.37187,1.52607 0.74269,2.24567 0.53443,1.03713 0.98533,1.81561 1.09905,1.76443 0.2022,-0.091 0.96351,-1.41273 1.12885,-1.60404 0.45913,-0.53127 0.94742,-1.03664 1.42587,-1.55058 0.35401,-0.38027 0.66542,-0.7679 1.00997,-1.14956 0.0804,-0.089 0.37671,-0.28983 0.26738,-0.2406 -0.17502,0.0788 -0.35742,0.14024 -0.53472,0.21387"
       id="path3089" /><path
       style="fill:none;stroke:#0d0067;stroke-width:0.513002;stroke-linejoin:round;stroke-opacity:1"
       d="m 132.18368,39.703017 c 0.83177,0 1.66353,0 2.49529,0 0.15843,0 0.62705,0.04552 0.4753,0 -0.48808,-0.14642 -1.11067,0.133671 -1.57441,0.133671 -0.46752,0 -0.93079,-0.08912 -1.39618,-0.133671 z"
       id="path3091" /><path
       style="fill:none;stroke:#0d0067;stroke-width:0.513002;stroke-linejoin:round;stroke-opacity:1"
       d="m 112.69677,36.842464 c 0.0198,-0.249516 0.0396,-0.499032 0.0594,-0.748548 0,-0.02673 0.002,-0.106857 0,-0.08021 -0.2323,2.928137 0.21747,-2.206169 -0.26734,2.218928 -0.0405,0.369684 0.18239,1.329023 0,0.507948"
       id="path3137" /><path
       style="fill:none;stroke:#0d0067;stroke-width:0.513002;stroke-linejoin:round;stroke-opacity:1"
       d="m 111.18174,36.12065 c 0.34215,-1.480503 3.15987,-1.093748 2.91115,0.294072 -0.18782,1.048037 -1.73887,1.141338 -2.55467,1.176297"
       id="path3139" /><path
       style="fill:none;stroke:#0d0067;stroke-width:0.513002;stroke-linejoin:round;stroke-opacity:1"
       d="m 114.36028,36.147381 c 0.18449,1.023699 -0.54479,2.084659 -0.35649,3.101153 0.0246,0.132868 0.0327,-0.268558 0.0594,-0.401011 0.11159,-0.552362 0.42506,-1.067636 0.44558,-1.630782 0.0131,-0.359635 -0.38546,-0.798493 -0.14852,-1.06936 0.27687,-0.316525 0.83054,-0.133517 1.24764,-0.187143 0.10803,-0.01389 0.23783,-0.06289 0.32677,0 1.77156,1.252635 -1.81209,1.911642 -1.81209,1.951594 0,0.288037 0.89332,0.542471 1.12884,0.695083 0.18699,0.121166 0.68105,0.832802 0.86144,0.507948"
       id="path3141" /><path
       style="fill:none;stroke:#0d0067;stroke-width:0.513002;stroke-linejoin:round;stroke-opacity:1"
       d="m 117.74672,36.227587 c -0.44124,0.959627 -0.31253,0.491139 -0.44558,1.363432 -0.004,0.02885 -0.25621,1.0712 -0.0297,1.256504 0.25335,0.207272 2.01842,0.316437 1.81204,-0.240608"
       id="path3143" /><path
       style="fill:none;stroke:#0d0067;stroke-width:0.513002;stroke-linejoin:round;stroke-opacity:1"
       d="m 116.67732,37.537555 c 0.0555,-0.351698 1.96741,0.509855 2.07938,0.106939"
       id="path3145" /><path
       style="fill:none;stroke:#0d0067;stroke-width:0.513002;stroke-linejoin:round;stroke-opacity:1"
       d="m 116.46937,36.147381 c 0.90502,-0.207302 1.78755,0.04182 2.64381,-0.320813"
       id="path3147" /><path
       style="fill:none;stroke:#0d0067;stroke-width:0.513002;stroke-linejoin:round;stroke-opacity:1"
       d="m 120.68759,35.933504 c -0.67247,-0.05172 -1.51529,0.01879 -1.90118,0.695094 -0.78375,1.373608 2.51277,1.173792 2.22795,1.73771 -0.0791,0.156586 -2.53007,0.690921 -0.74268,-0.213866"
       id="path3149" /><path
       style="fill:none;stroke:#0d0067;stroke-width:0.513002;stroke-linejoin:round;stroke-opacity:1"
       d="m 122.3511,36.628598 c -0.0294,0.0093 -0.42749,4.704756 -0.56439,3.10115"
       id="path3151" /><path
       style="fill:none;stroke:#0d0067;stroke-width:0.513002;stroke-linejoin:round;stroke-opacity:1"
       d="m 123.95519,37.270216 c -0.36075,0.49078 -1.14877,1.517288 -0.62378,2.192194 1.32533,1.703798 3.61396,-2.312037 1.54465,-2.272402 -0.30806,0.0059 -0.66621,-0.09324 -0.92087,0.08021 -1.40836,0.95918 -1.3156,0.900226 -1.2476,1.817916"
       id="path3153" /><path
       style="fill:none;stroke:#0d0067;stroke-width:0.513002;stroke-linejoin:round;stroke-opacity:1"
       d="m 127.01491,37.270216 c 0.21138,-0.78139 -0.67844,2.007618 -0.14853,1.871378 0.65609,-0.168672 -0.0973,-1.96899 0.14853,-1.871378 1.32311,0.525316 1.58768,3.695001 2.55467,0.213864 0.071,-0.255496 0.11883,-0.516857 0.17824,-0.775287 0.0597,-0.259718 0.28297,-0.865096 0.20796,-1.203031"
       id="path3155" /><path
       style="fill:none;stroke:#0d0067;stroke-width:0.513002;stroke-linejoin:round;stroke-opacity:1"
       d="m 124.19285,36.494928 c 0.79973,-0.601749 1.56024,-1.23934 2.28734,-1.924856"
       id="path3157" /><path
       style="fill:none;stroke:#0d0067;stroke-width:0.513002;stroke-linejoin:round;stroke-opacity:1"
       d="m 113.64731,40.424831 c -0.0594,0.329722 -0.1273,0.658028 -0.17824,0.989163 -0.037,0.240636 -0.24041,1.147053 0.0594,1.416907 0.40584,0.365248 2.2782,0.513941 2.46557,-0.160401"
       id="path3159" /><path
       style="fill:none;stroke:#0d0067;stroke-width:0.513002;stroke-linejoin:round;stroke-opacity:1"
       d="m 113.5285,41.654604 c 0.71177,-0.0682 1.42542,-0.05348 2.1388,-0.05348"
       id="path3161" /><path
       style="fill:none;stroke:#0d0067;stroke-width:0.513002;stroke-linejoin:round;stroke-opacity:1"
       d="m 113.17202,40.13076 c 0.96798,-0.175928 1.87329,0.02694 2.82205,0.13367"
       id="path3163" /><path
       style="fill:none;stroke:#0d0067;stroke-width:0.513002;stroke-linejoin:round;stroke-opacity:1"
       d="m 117.98435,40.879315 c 0.2451,-0.107077 -1.48527,2.361924 -1.48527,1.60404"
       id="path3167" /><path
       style="fill:none;stroke:#0d0067;stroke-width:0.513002;stroke-linejoin:round;stroke-opacity:1"
       d="m 116.26141,40.02382 c 0.81832,0.944559 1.66944,2.231185 2.76263,2.887287"
       id="path3169" /><path
       style="fill:none;stroke:#0d0067;stroke-width:0.513002;stroke-linejoin:round;stroke-opacity:1"
       d="m 120.12316,40.692172 c -0.24328,0.643756 0.095,2.641367 -0.35644,3.047686"
       id="path3171" /><path
       style="fill:none;stroke:#0d0067;stroke-width:0.513002;stroke-linejoin:round;stroke-opacity:1"
       d="m 118.45965,40.505037 c 1.10614,-0.442199 2.17167,0.467493 3.23792,0.347547 -1.02427,2.349186 -0.46553,2.117052 1.36645,2.352595"
       id="path3173" /><path
       style="fill:none;stroke:#0d0067;stroke-width:0.513002;stroke-linejoin:round;stroke-opacity:1"
       d="m 120.74698,41.975406 c 0.75511,-0.276037 1.43367,-0.240607 2.19823,-0.240607"
       id="path3175" /><path
       style="fill:none;stroke:#0d0067;stroke-width:0.513002;stroke-linejoin:round;stroke-opacity:1"
       d="m 121.01436,40.82584 c 0.77269,-0.09294 1.54541,0 2.31705,0 0.16832,0.472302 0.41798,0.92311 0.50496,1.416907 0.056,0.317913 -0.59821,3.072759 0.0891,0.775288 0.20787,-0.69481 0.76946,-2.480047 1.84175,-2.299121 0.20135,0.03397 0.31299,0.08834 0.38615,0.294071 0.25696,0.7226 -0.41016,1.036935 -1.00997,1.20303 -0.0567,0.01569 -1.39544,0.196053 -1.33679,0.294072 0.37409,0.625201 1.82075,0.55496 1.96061,1.309978"
       id="path3177" /><path
       style="fill:none;stroke:#0d0067;stroke-width:0.513002;stroke-linejoin:round;stroke-opacity:1"
       d="m 126.80696,43.392314 c 0.46792,0.280832 0.63288,-2.757723 0.83177,-2.967483 -0.64793,-0.287143 1.4231,3.352729 1.66351,2.379338"
       id="path3179" /><path
       style="fill:none;stroke:#0d0067;stroke-width:0.513002;stroke-linejoin:round;stroke-opacity:1"
       d="m 129.89635,40.26443 c -0.84595,0.989697 -0.71205,2.24157 -0.95059,3.421966"
       id="path3181" /><path
       style="fill:none;stroke:#0d0067;stroke-width:0.513002;stroke-linejoin:round;stroke-opacity:1"
       d="m 131.47076,41.574398 c -0.20794,0.418833 -0.43692,0.827864 -0.62382,1.256503 -0.12065,0.276707 -0.1922,0.572422 -0.29705,0.855495 -0.0438,0.118137 -0.16397,0.472566 -0.14853,0.347534 0.0507,-0.410129 0.50218,-2.61796 1.0694,-2.459532 0.75923,0.212051 0.99135,1.435508 1.18822,2.111998 0.0607,0.208461 0.43934,0.845922 0.0891,0.908957"
       id="path3183" /><path
       style="fill:none;stroke:#0d0067;stroke-width:0.513002;stroke-linejoin:round;stroke-opacity:1"
       d="m 130.16369,42.643766 c 0.80664,-0.08505 1.64283,0.07029 2.43586,-0.133678"
       id="path3185" /><path
       style="fill:none;stroke:#0d0067;stroke-width:0.513002;stroke-linejoin:round;stroke-opacity:1"
       d="m 144.60069,67.21239 c -0.13008,0.46828 -0.41307,1.37292 -0.47529,1.92485 -0.041,0.3636 -0.0594,0.7302 -0.0594,1.0961 0,0.0294 0.20326,1.18322 0.23763,0.93569 0.11235,-0.80924 0.47032,-4.7722 0.11885,-1.92485"
       id="path3187" /><path
       style="fill:none;stroke:#0d0067;stroke-width:0.513002;stroke-linejoin:round;stroke-opacity:1"
       d="m 141.6004,72.66614 c 0.48241,1.06412 1.07933,2.05908 1.69322,3.04767 0.12239,0.1971 0.28896,0.70586 0.44558,0.5347 0.76266,-0.83346 1.55851,-2.07557 1.90118,-3.15463"
       id="path3189" /><path
       style="fill:none;stroke:#0d0067;stroke-width:0.513002;stroke-linejoin:round;stroke-opacity:1"
       d="m 144.89775,77.31787 c 0.31685,-0.31189 0.64161,-0.61595 0.95054,-0.93569 0.15693,-0.16241 0.35086,-0.38802 0.50501,-0.56142 0.0271,-0.0305 0.0396,-0.1426 0.0594,-0.10695 0.0908,0.16331 0.0621,3.67413 0.29706,2.40608"
       id="path3191" /><path
       style="fill:none;stroke:#0d0067;stroke-width:0.513002;stroke-linejoin:round;stroke-opacity:1"
       d="m 179.17812,66.51729 c 0.0161,0.0327 -0.0297,4.79313 -0.0297,3.44871"
       id="path3193" /><path
       style="fill:none;stroke:#0d0067;stroke-width:0.513002;stroke-linejoin:round;stroke-opacity:1"
       d="m 176.20753,71.51658 c 0.23765,0.45447 0.48985,0.90163 0.71297,1.36342 0.75893,1.75022 0.19492,0.50408 0.74264,1.63078 0.0824,0.16954 0.15692,0.60732 0.29704,0.48122 0.78989,-0.71095 1.03185,-2.61611 1.90117,-3.52891"
       id="path3195" /><path
       style="fill:none;stroke:#0d0067;stroke-width:0.513002;stroke-linejoin:round;stroke-opacity:1"
       d="m 179.089,75.44647 c -0.35697,-0.0948 0.91422,-1.26329 1.1288,-0.82874 0.49297,0.99829 -0.14716,1.57297 -0.92089,2.13872 -0.0297,0.0217 -0.99592,0.69411 -0.95054,0.74856 0.1774,0.21284 3.20821,-0.2365 3.20821,0 0,0.12603 -0.18084,0.18157 -0.23767,0.29408"
       id="path3208" /></g></svg>
