<?xml version="1.0" encoding="UTF-8" standalone="no"?>
<!-- Created with Inkscape (http://www.inkscape.org/) -->

<svg
   width="660"
   height="500"
   viewBox="0 0 174.62499 132.29193"
   version="1.1"
   id="svg5"
   xml:space="preserve"
   inkscape:version="1.2.2 (b0a8486541, 2022-12-01)"
   sodipodi:docname="joule-expansion.svg"
   inkscape:export-filename="olla-habitacion.svg"
   inkscape:export-xdpi="96"
   inkscape:export-ydpi="96"
   xmlns:inkscape="http://www.inkscape.org/namespaces/inkscape"
   xmlns:sodipodi="http://sodipodi.sourceforge.net/DTD/sodipodi-0.dtd"
   xmlns="http://www.w3.org/2000/svg"
   xmlns:svg="http://www.w3.org/2000/svg"><sodipodi:namedview
     id="namedview7"
     pagecolor="#ffffff"
     bordercolor="#000000"
     borderopacity="0.25"
     inkscape:showpageshadow="2"
     inkscape:pageopacity="0.0"
     inkscape:pagecheckerboard="0"
     inkscape:deskcolor="#d1d1d1"
     inkscape:document-units="mm"
     showgrid="true"
     inkscape:zoom="1.5"
     inkscape:cx="405.33333"
     inkscape:cy="300.66667"
     inkscape:window-width="2518"
     inkscape:window-height="1209"
     inkscape:window-x="1920"
     inkscape:window-y="152"
     inkscape:window-maximized="0"
     inkscape:current-layer="layer1"><inkscape:grid
       type="xygrid"
       id="grid9"
       originx="0"
       originy="0" /></sodipodi:namedview><defs
     id="defs2">
	
	

	

	
	

		
		
	</defs><g
     inkscape:label="Layer 1"
     inkscape:groupmode="layer"
     id="layer1"><text
       id="text14282"
       x="2.8758538"
       y="27.249046"
       style="font-size:3.17501px;stroke-width:0.264584"><tspan
         sodipodi:role="line"
         id="tspan4154"
         x="4.0699"
         y="31.217796"><tspan
           x="4.0699"
           y="31.217796"
           font-family="Helvetica"
           font-size="4.76251px"
           id="tspan14280"
           style="stroke-width:0.0700046">Estado inicial</tspan></tspan><tspan
         sodipodi:role="line"
         id="tspan4156"
         x="4.0699"
         y="35.992611" /></text><g
       id="g4249"
       transform="matrix(1,0,0,0.88779285,-9.8866924,0.08882036)"><g
         id="g3703"
         transform="matrix(0.26458386,0,0,0.26458386,43.062661,0.17859411)">
		<polygon
   fill="#b3b3b3"
   points="217.243,85.875 266.553,85.875 266.553,156.225 217.243,156.225 217.243,222.425 14.483,222.425 14.483,19.675 217.243,19.675 "
   id="polygon3701" />
	</g><polygon
         fill="none"
         stroke="#000000"
         points="14.483,222.425 217.243,222.425 217.243,156.225 266.553,156.225 315.863,156.225 315.863,222.425 518.623,222.425 518.623,19.675 315.863,19.675 315.863,85.875 266.553,85.875 217.243,85.875 217.243,19.675 14.483,19.675 "
         id="polygon3705"
         transform="matrix(0.26458386,0,0,0.26458386,43.062661,0.17859411)" /><polyline
         fill="none"
         stroke="#000000"
         stroke-width="5"
         points="266.553,70.705 266.553,85.875 266.553,156.225 266.553,173.465       "
         id="polyline3707"
         transform="matrix(0.26458386,0,0,0.26458386,43.062661,0.17859411)" /></g><text
       id="text14214-2"
       x="10.479171"
       y="37.445038"
       style="font-size:3.17501px;stroke-width:0.264584"><tspan
         x="10.479171"
         y="37.445038"
         font-family="Helvetica"
         font-size="4.76251px"
         id="tspan14208-9"
         style="stroke-width:0.0700046">Vi, Pi</tspan></text><g
       id="XMLID_2_"
       transform="matrix(0.26463899,0,0,0.21187202,33.161274,22.499049)">
	<g
   id="g3692">
		<polygon
   fill="#d9d9d9"
   points="518.623,494.745 315.863,494.745 315.863,428.535 266.553,428.535 266.553,358.185 315.863,358.185 315.863,291.985 518.623,291.985 "
   id="polygon3688" />
		<polygon
   fill="#d9d9d9"
   points="266.553,428.535 217.243,428.535 217.243,494.745 14.483,494.745 14.483,291.985 217.243,291.985 217.243,358.185 266.553,358.185 "
   id="polygon3690" />
	</g>
	<g
   id="g3698">
		<polygon
   fill="none"
   stroke="#000000"
   points="518.623,494.745 518.623,291.985 315.863,291.985 315.863,358.185 266.553,358.185 217.243,358.185 217.243,291.985 14.483,291.985 14.483,494.745 217.243,494.745 217.243,428.535 266.553,428.535 315.863,428.535 315.863,494.745 "
   id="polygon3694" />
		
			<polyline
   fill="none"
   stroke="#000000"
   stroke-width="2"
   stroke-linecap="round"
   stroke-linejoin="round"
   stroke-dasharray="5"
   points="    266.553,341.985 266.553,358.185 266.553,428.535 266.553,444.745   "
   id="polyline3696" />
	</g>
</g><text
       id="text14274-1"
       x="4.4598775"
       y="96.040848"
       style="font-size:3.17501px;stroke-width:0.264584"><tspan
         x="4.5958943"
         y="100.0096"
         font-family="Helvetica"
         font-size="4.76251px"
         id="tspan14272-2"
         style="stroke-width:0.0700046">Estado final</tspan></text><text
       id="text14214-2-7"
       x="9.7266989"
       y="106.25114"
       style="font-size:3.17501px;stroke-width:0.264584"><tspan
         x="9.7266989"
         y="106.25114"
         font-family="Helvetica"
         font-size="4.76251px"
         id="tspan14208-9-0"
         style="stroke-width:0.0700046">Vf, Pf</tspan></text><path
       style="fill:none;stroke:#0d0067;stroke-width:0.513002;stroke-linejoin:round;stroke-opacity:1"
       d="m 106.90139,55.553142 c -1.11803,0.267299 -2.08194,0.901125 -3.00029,1.577319 -0.61474,0.452635 -1.29467,0.862882 -1.87147,1.36343 -0.35521,0.308254 -0.76055,0.670284 -1.00998,1.069361 -0.61266,0.980262 -1.105385,2.200927 -0.17824,3.154625 0.56144,0.57751 2.00109,0.43478 2.73292,0.507948 1.93926,0.193898 4.37599,0.973187 3.53497,3.395225 -0.94219,2.713411 -5.31668,1.790211 -6.26789,4.571533 -0.12594,0.368256 -0.23699,0.938598 -0.14852,1.336699 0.17951,0.807856 0.8237,1.383802 1.48527,1.791185 0.52523,0.323432 0.86672,0.666391 1.48531,0.828761 1.77485,0.465877 4.01748,-0.0035 3.80231,2.512999 -0.14634,1.711686 -3.49338,2.368169 -3.95084,4.838871 -0.10926,0.590115 -0.25988,1.111665 0,1.657515 0.0712,0.149535 -0.23163,-0.238716 -0.32676,-0.374278 -0.43157,-0.614935 -0.79583,-1.28683 -1.33679,-1.817916 -0.13493,-0.132469 -0.2673,-0.259652 -0.41587,-0.374278 -0.0316,-0.02442 -0.1085,-0.115138 -0.0891,-0.0802 0.14225,0.256059 1.96027,2.539579 2.25762,2.673408 0.0916,0.04123 0.48434,-0.403279 0.53472,-0.454473 0.14214,-0.144415 2.45257,-2.337551 2.52496,-2.2724 0.12124,0.109112 -0.16319,0.28261 -0.23762,0.427742"
       id="path4309" /><path
       style="fill:none;stroke:#0d0067;stroke-width:0.513002;stroke-linejoin:round;stroke-opacity:1"
       d="m 114.23868,60.311807 c -0.32676,-0.133668 -0.63436,-0.330518 -0.9803,-0.401008 -0.32199,-0.06561 -2.05911,0.806277 -1.36646,1.256503 0.6939,0.451036 2.1285,0.304642 2.61411,1.069361 0.44638,0.702957 -1.34913,0.811388 -1.66352,0.641618"
       id="path4311" /><path
       style="fill:none;stroke:#0d0067;stroke-width:0.513002;stroke-linejoin:round;stroke-opacity:1"
       d="m 115.78338,60.712818 c -0.71498,2.346822 -0.13207,2.192194 1.93085,2.192194"
       id="path4313" /><path
       style="fill:none;stroke:#0d0067;stroke-width:0.513002;stroke-linejoin:round;stroke-opacity:1"
       d="M 115.60514,61.701984 C 116.2121,61.48 116.84387,61.470401 117.47661,61.54158"
       id="path4315" /><path
       style="fill:none;stroke:#0d0067;stroke-width:0.513002;stroke-linejoin:round;stroke-opacity:1"
       d="m 115.30809,60.552417 c 0.6201,-0.299773 1.14294,-0.320805 1.78232,-0.320805"
       id="path4317" /><path
       style="fill:none;stroke:#0d0067;stroke-width:0.513002;stroke-linejoin:round;stroke-opacity:1"
       d="m 120.26895,63.065424 c 0.18679,-1.008398 -0.39326,-2.029313 0.50501,-2.914018 0.40598,-0.204962 0.77978,-0.493007 1.21793,-0.614886 0.69374,-0.192977 0.99591,1.390898 0.62382,1.737721 -0.36124,0.336709 -0.86885,0.506903 -1.33679,0.614886 -0.17769,0.041 -1.07643,0.207486 -1.21793,0.08019 -0.29295,-0.263548 1.42504,0.04951 1.5447,0.106938 0.55958,0.268576 0.94627,0.955533 1.48531,1.149566"
       id="path4323" /><path
       style="fill:none;stroke:#0d0067;stroke-width:0.513002;stroke-linejoin:round;stroke-opacity:1"
       d="m 124.30893,60.258345 c -0.16156,2.137997 -0.36813,3.199544 2.1091,2.753604"
       id="path4325" /><path
       style="fill:none;stroke:#0d0067;stroke-width:0.513002;stroke-linejoin:round;stroke-opacity:1"
       d="m 124.30893,61.514849 c 0.66078,-0.165786 1.14609,0.05124 1.75262,0.160401"
       id="path4327" /><path
       style="fill:none;stroke:#0d0067;stroke-width:0.513002;stroke-linejoin:round;stroke-opacity:1"
       d="m 123.95245,60.124675 c 0.80196,-0.390944 1.34807,-0.302777 2.13881,-0.160401"
       id="path4329" /><path
       style="fill:none;stroke:#0d0067;stroke-width:0.513002;stroke-linejoin:round;stroke-opacity:1"
       d="m 127.51714,60.392016 c 0.01,0.33863 0.0232,0.677181 0.0297,1.015893 0.003,0.178195 0.009,0.356683 0,0.534682 -0.0207,0.409734 -0.0594,0.794611 -0.0594,1.203028 0,0.160709 0.0196,-0.320813 0.0297,-0.481204 0.0219,-0.347425 0.0594,-0.69453 0.0594,-1.04264 0,-0.410396 -0.42227,-1.038079 -0.0594,-1.229759 0.44614,-0.23566 0.9712,0.289238 1.42589,0.507948 0.13133,0.06317 0.18873,0.223306 0.29705,0.320802 0.28868,0.259811 0.66808,-0.839352 0.86145,-0.908959 0.44192,-0.159073 0.51052,3.376709 0.59411,3.903184"
       id="path4331" /><path
       style="fill:none;stroke:#0d0067;stroke-width:0.513002;stroke-linejoin:round;stroke-opacity:1"
       d="m 132.478,60.124675 c -0.9071,1.062603 1.29825,3.987967 2.16852,1.951586 0.34279,-0.802088 0.20057,-2.179094 0.44558,-2.619935"
       id="path4333" /><path
       style="fill:none;stroke:#0d0067;stroke-width:0.513002;stroke-linejoin:round;stroke-opacity:1"
       d="m 136.7259,60.097944 c -0.25204,3.329775 -0.72929,3.846713 2.82206,3.047675"
       id="path4335" /><path
       style="fill:none;stroke:#0d0067;stroke-width:0.513002;stroke-linejoin:round;stroke-opacity:1"
       d="m 137.02296,61.701984 c 0.67016,-0.232474 1.35201,-0.272067 2.01999,-0.05346"
       id="path4337" /><path
       style="fill:none;stroke:#0d0067;stroke-width:0.513002;stroke-linejoin:round;stroke-opacity:1"
       d="m 136.45856,60.017735 c 0.83185,-0.422754 1.73571,-0.435817 2.64382,-0.481214"
       id="path4339" /><path
       style="fill:none;stroke:#0d0067;stroke-width:0.513002;stroke-linejoin:round;stroke-opacity:1"
       d="m 140.46883,59.589996 c 0.61667,0.596814 0.5651,2.843215 1.39617,3.341758"
       id="path4341" /><path
       style="fill:none;stroke:#0d0067;stroke-width:0.513002;stroke-linejoin:round;stroke-opacity:1"
       d="m 143.08293,60.178139 c -0.7178,0.845224 -0.87384,1.974106 -1.39617,2.914019"
       id="path4343" /><path
       style="fill:none;stroke:#0d0067;stroke-width:0.513002;stroke-linejoin:round;stroke-opacity:1"
       d="m 144.92469,59.991005 c -0.22775,0.409919 -0.47751,0.808367 -0.68325,1.229761 -0.8233,1.686223 0.0499,2.088348 1.57441,2.058524 0.29718,-0.0058 0.94407,0.03262 1.21793,-0.213866"
       id="path4345" /><path
       style="fill:none;stroke:#0d0067;stroke-width:0.513002;stroke-linejoin:round;stroke-opacity:1"
       d="m 144.27115,61.568313 c 1.01805,-0.04646 2.04759,-0.04655 3.05968,-0.160404"
       id="path4347" /><path
       style="fill:none;stroke:#0d0067;stroke-width:0.513002;stroke-linejoin:round;stroke-opacity:1"
       d="m 144.18205,59.509787 c 1.09955,0.01024 2.19813,-0.0013 3.29731,-0.02673"
       id="path4349" /><path
       style="fill:none;stroke:#0d0067;stroke-width:0.513002;stroke-linejoin:round;stroke-opacity:1"
       d="m 112.99104,66.113102 c -0.0469,0.506784 -0.79304,3.274231 0.14853,3.582368 0.72937,0.238694 1.55016,-0.05346 2.28733,-0.05346"
       id="path4351" /><path
       style="fill:none;stroke:#0d0067;stroke-width:0.513002;stroke-linejoin:round;stroke-opacity:1"
       d="m 112.96133,67.984493 c 0.76977,-0.163862 1.5822,-0.401781 2.34676,-0.106939"
       id="path4353" /><path
       style="fill:none;stroke:#0d0067;stroke-width:0.513002;stroke-linejoin:round;stroke-opacity:1"
       d="m 112.96133,66.059638 c 0.84854,-0.190403 1.66927,-0.22768 2.525,-0.187133"
       id="path4355" /><path
       style="fill:none;stroke:#0d0067;stroke-width:0.513002;stroke-linejoin:round;stroke-opacity:1"
       d="m 116.67454,66.353709 c -0.11912,0.136663 -0.67989,3.198002 -0.32676,3.261565 0.67802,0.122047 1.37861,-0.204462 2.0497,-0.05348"
       id="path4357" /><path
       style="fill:none;stroke:#0d0067;stroke-width:0.513002;stroke-linejoin:round;stroke-opacity:1"
       d="m 123.80393,65.738835 c -0.0935,0.343073 0.12956,3.183806 0,3.261554"
       id="path4359" /><path
       style="fill:none;stroke:#0d0067;stroke-width:0.513002;stroke-linejoin:round;stroke-opacity:1"
       d="m 122.31865,65.68536 c 1.20784,-0.244153 2.40723,0.427533 3.59437,0.160401"
       id="path4361" /><path
       style="fill:none;stroke:#0d0067;stroke-width:0.513002;stroke-linejoin:round;stroke-opacity:1"
       d="m 126.38831,66.968597 c -0.0495,0.356453 -0.0894,0.714382 -0.14853,1.06936 -0.03,0.180092 -0.0762,0.357162 -0.11881,0.53469 -0.72286,3.00907 0.10899,-1.469919 0.26734,-1.60405 0.30978,-0.262396 0.84534,-0.161214 1.21793,0 0.0894,0.03869 1.29989,2.361572 1.63384,2.833812"
       id="path4363" /><path
       style="fill:none;stroke:#0d0067;stroke-width:0.513002;stroke-linejoin:round;stroke-opacity:1"
       d="m 125.52686,68.198369 c 1.17978,0.01683 2.41282,-0.399799 3.59436,-0.187145"
       id="path4365" /><path
       style="fill:none;stroke:#0d0067;stroke-width:0.513002;stroke-linejoin:round;stroke-opacity:1"
       d="m 130.10153,66.540855 c -0.25718,0.858873 0.38313,1.775611 0.14853,2.619936"
       id="path4367" /><path
       style="fill:none;stroke:#0d0067;stroke-width:0.513002;stroke-linejoin:round;stroke-opacity:1"
       d="m 129.53713,65.658629 c 0.65418,-0.605064 2.82415,-0.608077 2.25762,0.828751 -0.25028,0.634779 -1.18614,0.817707 -1.75265,1.042629 -0.43993,0.174665 -0.27072,0.160412 -0.53468,0.160412 -0.0297,0 -0.11724,0.0095 -0.0891,0 0.41414,-0.139785 0.99673,-0.204893 1.42584,-0.213876 1.97242,-0.04129 2.64451,1.919027 -0.14852,2.165463 -0.44912,0.03962 -1.21587,0.0019 -1.51499,-0.267341"
       id="path4369" /><path
       style="fill:none;stroke:#0d0067;stroke-width:0.513002;stroke-linejoin:round;stroke-opacity:1"
       d="m 134.29004,67.369605 c -0.0446,0.984909 -0.11881,1.954688 -0.11881,2.940752"
       id="path4371" /><path
       style="fill:none;stroke:#0d0067;stroke-width:0.513002;stroke-linejoin:round;stroke-opacity:1"
       d="m 133.87417,65.311082 c 0.22657,0.542151 0.95972,1.673445 0,0 z"
       id="path4373" /><path
       style="fill:none;stroke:#0d0067;stroke-width:0.513002;stroke-linejoin:round;stroke-opacity:1"
       d="m 136.51795,67.022072 c -0.40077,0.721385 -0.71964,0.837413 -0.44558,1.577306 0.57823,1.561132 3.00594,0.473047 3.32706,-0.93569 0.4564,-2.002194 -2.04209,-2.509216 -2.34676,-2.005059 -0.25249,0.417818 -0.35648,0.908962 -0.53472,1.363443 z"
       id="path4375" /><path
       style="fill:none;stroke:#0d0067;stroke-width:0.513002;stroke-linejoin:round;stroke-opacity:1"
       d="m 137.2903,67.717152 c 0.12767,0.655226 0.45469,2.353622 1.39617,2.459535"
       id="path4377" /><path
       style="fill:none;stroke:#0d0067;stroke-width:0.513002;stroke-linejoin:round;stroke-opacity:1"
       d="m 140.8847,66.48738 c -0.01,0.534684 -0.0765,1.071321 -0.0297,1.60405 0.0718,0.818157 1.24675,1.281935 1.75266,0.588143 0.53422,-0.732624 0.57257,-1.656123 0.44558,-2.512996"
       id="path4379" /><path
       style="fill:none;stroke:#0d0067;stroke-width:0.513002;stroke-linejoin:round;stroke-opacity:1"
       d="m 144.86526,66.273514 c -0.91834,3.372174 -0.60601,3.497714 2.64381,3.047678"
       id="path4381" /><path
       style="fill:none;stroke:#0d0067;stroke-width:0.513002;stroke-linejoin:round;stroke-opacity:1"
       d="m 144.12262,67.476545 c 1.06192,-0.172191 2.12144,-0.135909 3.1785,0"
       id="path4383" /><path
       style="fill:none;stroke:#0d0067;stroke-width:0.513002;stroke-linejoin:round;stroke-opacity:1"
       d="m 144.00381,65.578423 c 1.22889,-0.296884 2.35674,-0.06373 3.56469,0.187143"
       id="path4385" /><path
       style="fill:none;stroke:#0d0067;stroke-width:0.513002;stroke-linejoin:round;stroke-opacity:1"
       d="m 56.342281,22.295944 c -2.738115,-0.668187 -4.388126,4.233862 -1.930894,5.560697 0.610512,0.329656 2.168839,0.578838 2.703243,-0.13367 0.293212,-0.390933 0.361797,-0.679721 0.386152,-1.096102 0.01201,-0.205397 -0.278699,-1.176299 -0.534679,-1.176299 -0.39406,0 -2.064407,0.758457 -0.950589,0.507948"
       id="path4387" /><path
       style="fill:none;stroke:#0d0067;stroke-width:0.513002;stroke-linejoin:round;stroke-opacity:1"
       d="m 59.847543,23.204902 c -0.206661,1.239885 -0.20981,1.042394 -0.267338,2.40607 -0.0127,0.301152 -0.114059,1.257427 0.0891,1.577307 0.139459,0.219588 0.07931,-0.515341 0.0891,-0.775287 0.01085,-0.288261 0.06046,-3.205744 0.08914,-3.20809 0.502453,-0.0411 0.663031,0.762235 0.950592,1.176308 0.202727,0.291919 1.795889,2.815294 1.099116,2.94075"
       id="path4389" /><path
       style="fill:none;stroke:#0d0067;stroke-width:0.513002;stroke-linejoin:round;stroke-opacity:1"
       d="m 59.194008,26.493198 c 0.918537,-0.2109 1.826721,-0.388512 2.732913,-0.641618"
       id="path4391" /><path
       style="fill:none;stroke:#0d0067;stroke-width:0.513002;stroke-linejoin:round;stroke-opacity:1"
       d="m 64.897505,21.894939 c -0.287151,0.04456 -0.60045,0.0059 -0.861448,0.133665 -0.324536,0.158846 -0.58693,0.429375 -0.831778,0.695092 -1.445673,1.56889 2.493621,1.216006 2.792341,1.363432 0.366539,0.180894 0.593449,0.40603 0.742637,0.775288 0.639957,1.583967 -1.317887,2.286993 -2.406147,1.684247"
       id="path4393" /><path
       style="fill:none;stroke:#0d0067;stroke-width:0.513002;stroke-linejoin:round;stroke-opacity:1"
       d="m 126.71508,25.290168 c 1.20854,1.369615 2.14569,2.935208 3.20821,4.41112 0.23097,0.32084 0.64802,0.914913 0.80206,0.855495 0.26759,-0.103214 0.28361,-0.595763 0.32677,-0.828764"
       id="path4395" /><path
       style="fill:none;stroke:#0d0067;stroke-width:0.513002;stroke-linejoin:round;stroke-opacity:1"
       d="m 131.64623,24.354468 c -0.30637,1.443555 -0.37454,2.91471 -0.41587,4.384399 -0.0162,0.5771 -0.0307,1.149553 0.0297,1.149553 0.0985,0 0.0297,-0.195548 0.0297,-0.294071"
       id="path4397" /><path
       style="fill:none;stroke:#0d0067;stroke-width:0.513002;stroke-linejoin:round;stroke-opacity:1"
       d="m 133.96327,28.33784 c 0,0.329722 0,0.659444 0,0.989165 0,0.02674 0,-0.05346 0,-0.08019 0,-0.258435 -0.0126,-0.517177 0,-0.775299 0.0715,-1.458622 0.18403,-2.938888 0.74264,-4.304182 0.63564,2.418182 0.4932,2.136122 1.24764,4.197254 0.35157,0.830448 0.1377,0.284248 0.32677,0.828752 0.0187,0.05386 0.11622,0.165512 0.0594,0.160402 -0.13367,-0.01203 -0.23766,-0.124756 -0.35648,-0.187134"
       id="path4399" /><path
       style="fill:none;stroke:#0d0067;stroke-width:0.513002;stroke-linejoin:round;stroke-opacity:1"
       d="m 132.478,28.204175 c 1.22735,-0.332796 2.40494,-0.792871 3.65379,-1.042627"
       id="path4401" /><path
       style="fill:none;stroke:#0d0067;stroke-width:0.513002;stroke-linejoin:round;stroke-opacity:1"
       d="m 140.02325,23.338582 c -1.93996,-1.258749 -3.73732,2.504473 -2.25766,3.769501 1.15085,0.983919 2.96879,0.234601 3.71322,-0.882226"
       id="path4403" /><path
       style="fill:none;stroke:#0d0067;stroke-width:0.513002;stroke-linejoin:round;stroke-opacity:1"
       d="m 142.66707,23.659386 c -0.009,1.036047 0.10648,3.100346 0.41586,3.796244"
       id="path4405" /><path
       style="fill:none;stroke:#0d0067;stroke-width:0.513002;stroke-linejoin:round;stroke-opacity:1"
       d="m 141.62733,22.10881 c 0.21178,-1.206258 1.21085,-1.98834 1.9309,-2.914013"
       id="path4407" /><path
       style="fill:none;stroke:#0d0067;stroke-width:0.513002;stroke-linejoin:round;stroke-opacity:1"
       d="m 145.01379,24.64855 c -0.89261,2.524033 3.78344,3.110227 4.45585,0.882226 0.12507,-0.414425 0.40771,-2.062222 0.29705,-2.619946 -0.29477,-1.485618 -2.15263,-2.391028 -3.26759,-0.962427 -0.63202,0.809798 -0.95641,1.819538 -1.48531,2.700147 z"
       id="path4409" /><path
       style="fill:none;stroke:#0d0067;stroke-width:0.513002;stroke-linejoin:round;stroke-opacity:1"
       d="m 60.649608,101.6427 c -1.297233,-0.37707 -1.97537,0.50307 -2.406189,1.71098 -0.729873,2.04637 2.122875,4.93002 3.416164,3.4487 0.221168,-0.25333 0.401053,-0.54692 0.534721,-0.8555 0.08208,-0.18949 0.376686,-2.00383 -0.08914,-2.03178 -0.77586,-0.0465 -1.871894,0.71603 -2.168519,0.96242"
       id="path4411" /><path
       style="fill:none;stroke:#0d0067;stroke-width:0.513002;stroke-linejoin:round;stroke-opacity:1"
       d="m 63.9172,101.29515 c -0.108908,0.65945 -0.241234,1.31545 -0.326724,1.97833 -0.05034,0.39033 -0.0789,1.38005 -0.05943,1.81792 0.0092,0.2069 0.0481,0.81789 0.0891,0.61489 0.112969,-0.55943 -0.152258,-4.42033 0.297053,-4.41114 0.593097,0.0122 2.154697,3.38095 2.019992,3.50218 -0.08519,0.0767 -0.217845,0.0713 -0.326766,0.10692"
       id="path4413" /><path
       style="fill:none;stroke:#0d0067;stroke-width:0.513002;stroke-linejoin:round;stroke-opacity:1"
       d="m 63.233994,103.70122 c 0.829217,-0.39178 1.73049,-0.56972 2.554671,-0.96242"
       id="path4415" /><path
       style="fill:none;stroke:#0d0067;stroke-width:0.513002;stroke-linejoin:round;stroke-opacity:1"
       d="m 69.47217,98.835622 c -0.297054,0.06238 -0.60523,0.08528 -0.891163,0.187143 -0.435789,0.155247 -2.052478,1.448375 -1.485268,2.031785 0.800085,0.82293 4.019862,-0.5408 3.505262,2.03179 -0.116083,0.58032 -2.986363,1.63316 -2.67353,0.88222"
       id="path4417" /><path
       style="fill:none;stroke:#0d0067;stroke-width:0.513002;stroke-linejoin:round;stroke-opacity:1"
       d="m 137.76559,99.71785 c -0.23764,-0.11585 -0.45235,-0.302882 -0.71292,-0.347549 -2.24819,-0.385393 -3.71332,5.828039 0.29705,5.828039 0.91617,0 1.63184,-2.1505 1.33675,-2.59322 -0.31845,-0.47774 -3.01914,1.03529 -1.90114,0.58816"
       id="path4419" /><path
       style="fill:none;stroke:#0d0067;stroke-width:0.513002;stroke-linejoin:round;stroke-opacity:1"
       d="m 140.7956,99.71785 c -0.58348,1.87069 -0.43964,0.97799 -0.53472,2.53974 -0.0508,0.83518 -0.0824,0.95571 -0.0594,1.76445 0.002,0.0719 -0.036,0.2434 0.0297,0.21387 0.29831,-0.13426 0.34572,-4.54618 0.56444,-4.51806 0.51327,0.066 1.1156,2.18877 1.36646,2.83381 0.15693,0.40351 1.04453,1.41363 0.23762,1.14956"
       id="path4421" /><path
       style="fill:none;stroke:#0d0067;stroke-width:0.513002;stroke-linejoin:round;stroke-opacity:1"
       d="m 138.92414,102.819 c 1.22837,-0.33334 2.32296,-1.11079 3.56468,-1.39018"
       id="path4423" /><path
       style="fill:none;stroke:#0d0067;stroke-width:0.513002;stroke-linejoin:round;stroke-opacity:1"
       d="m 147.00406,96.777096 c -0.86298,0.218446 -1.04858,0.194175 -1.81204,0.668349 -0.43268,0.268741 -0.86316,0.548141 -1.24764,0.882229 -0.042,0.0365 -1.11344,1.440426 -0.62382,1.550576 1.39704,0.31428 4.23965,-1.342968 4.39647,1.14957 0.11291,1.79479 -4.43052,1.75814 -3.59441,1.2565"
       id="path4425" /></g></svg>
